<?xml version="1.0" encoding="UTF-8"?>
<svg width="348px" height="83px" viewBox="0 0 348 83" version="1.1" xmlns="http://www.w3.org/2000/svg" xmlns:xlink="http://www.w3.org/1999/xlink">
    <!-- Generator: Sketch 49.3 (51167) - http://www.bohemiancoding.com/sketch -->
    <title>880_Candela_Sk_02</title>
    <desc>Created with Sketch.</desc>
    <defs></defs>
    <g id="Page-1" stroke="none" stroke-width="1" fill="none" fill-rule="evenodd">
        <g id="880_Candela_Sk_02" fill-rule="nonzero">
            <g id="XMLID_185_" transform="translate(82.000000, 16.000000)" fill="#1E68D9">
                <path d="M0.1,25.9 C0.1,23 0.6,20.1 1.7,17.2 C2.7,14.3 4.2,11.8 6.2,9.5 C8.2,7.3 10.6,5.4 13.4,4 C16.2,2.6 19.5,1.9 23.1,1.9 C27.4,1.9 31.1,2.9 34.2,4.8 C37.3,6.7 39.6,9.3 41.1,12.4 L33.9,17.3 C33.4,15.9 32.7,14.8 31.8,13.9 C30.9,13 30,12.2 29,11.7 C28,11.2 26.9,10.8 25.9,10.5 C24.8,10.3 23.8,10.1 22.8,10.1 C20.6,10.1 18.7,10.6 17,11.5 C15.3,12.4 14,13.7 12.9,15.2 C11.8,16.7 11,18.4 10.4,20.3 C9.8,22.2 9.6,24.1 9.6,26 C9.6,28.1 9.9,30.2 10.6,32.1 C11.3,34.1 12.2,35.8 13.4,37.3 C14.6,38.8 16,40 17.7,40.9 C19.4,41.8 21.2,42.2 23.2,42.2 C24.2,42.2 25.3,42.1 26.4,41.8 C27.5,41.5 28.5,41.1 29.5,40.5 C30.5,39.9 31.4,39.2 32.3,38.2 C33.2,37.3 33.8,36.2 34.4,34.9 L42,39.3 C41.3,41.1 40.2,42.7 38.9,44.1 C37.5,45.5 36,46.6 34.2,47.6 C32.4,48.5 30.6,49.3 28.7,49.8 C26.8,50.3 24.9,50.5 23,50.5 C19.7,50.5 16.6,49.8 13.9,48.3 C11.1,46.9 8.7,45 6.7,42.7 C4.7,40.4 3.1,37.8 2,34.8 C0.7,32 0.1,29 0.1,25.9 Z" id="XMLID_195_"></path>
                <path d="M57,50.6 C55.3,50.6 53.7,50.3 52.2,49.8 C50.7,49.2 49.4,48.4 48.4,47.4 C47.3,46.4 46.5,45.2 45.9,43.9 C45.3,42.5 45,41.1 45,39.4 C45,37.7 45.4,36.2 46.1,34.8 C46.8,33.4 47.9,32.2 49.2,31.2 C50.5,30.2 52.1,29.4 54,28.9 C55.8,28.3 57.9,28.1 60.1,28.1 C61.7,28.1 63.2,28.2 64.7,28.5 C66.2,28.8 67.5,29.2 68.7,29.6 L68.7,27.6 C68.7,25.3 68,23.5 66.7,22.2 C65.4,20.9 63.4,20.3 60.8,20.3 C58.9,20.3 57.1,20.6 55.3,21.3 C53.5,22 51.7,23 49.8,24.3 L47,18.6 C51.5,15.6 56.4,14.1 61.7,14.1 C66.8,14.1 70.7,15.4 73.5,17.8 C76.3,20.3 77.7,23.9 77.7,28.6 L77.7,39.6 C77.7,40.5 77.9,41.2 78.2,41.6 C78.6,42 79.2,42.2 80.1,42.3 L80.1,50 C79.2,50.2 78.4,50.3 77.7,50.4 C77,50.5 76.3,50.5 75.8,50.5 C74.1,50.5 72.8,50.1 71.9,49.3 C71,48.6 70.4,47.6 70.2,46.3 L70,44.3 C68.4,46.4 66.5,47.9 64.3,49 C61.9,50.1 59.5,50.6 57,50.6 Z M59.5,44 C61,44 62.5,43.7 63.9,43.2 C65.3,42.7 66.3,41.9 67.1,41 C68.1,40.2 68.6,39.4 68.6,38.4 L68.6,34.4 C67.5,34 66.4,33.7 65.1,33.4 C63.8,33.2 62.6,33 61.5,33 C59.2,33 57.2,33.5 55.8,34.6 C54.3,35.7 53.6,37 53.6,38.6 C53.6,40.1 54.2,41.4 55.4,42.4 C56.4,43.5 57.8,44 59.5,44 Z" id="XMLID_197_"></path>
                <path d="M119.1,50.6 L110.1,50.6 L110.1,30.8 C110.1,28 109.6,25.9 108.6,24.6 C107.6,23.3 106.2,22.6 104.5,22.6 C103.6,22.6 102.7,22.8 101.7,23.1 C100.8,23.5 99.9,24 99,24.6 C98.2,25.3 97.4,26 96.7,26.9 C96,27.8 95.5,28.8 95.2,29.9 L95.2,50.6 L86.2,50.6 L86.2,15.2 L94.4,15.2 L94.4,21.7 C95.7,19.4 97.6,17.7 100.1,16.4 C102.6,15.1 105.4,14.5 108.5,14.5 C110.7,14.5 112.5,14.9 113.9,15.7 C115.3,16.5 116.4,17.6 117.1,18.9 C117.9,20.2 118.4,21.7 118.7,23.4 C119,25.1 119.1,26.8 119.1,28.5 L119.1,50.6 Z" id="XMLID_211_"></path>
                <path d="M141.5,50.6 C139.1,50.6 136.8,50.1 134.8,49.2 C132.8,48.3 131,46.9 129.5,45.3 C128,43.6 126.9,41.7 126,39.5 C125.2,37.3 124.7,34.9 124.7,32.3 C124.7,29.7 125.1,27.4 125.9,25.1 C126.7,22.9 127.8,21 129.2,19.3 C130.6,17.6 132.3,16.3 134.2,15.4 C136.1,14.5 138.2,14 140.5,14 C143.1,14 145.4,14.6 147.5,15.9 C149.6,17.2 151.2,18.8 152.4,20.8 L152.4,0.7 L161.4,0.7 L161.4,39.6 C161.4,40.5 161.6,41.2 161.9,41.6 C162.3,42 162.9,42.2 163.8,42.3 L163.8,50 C162.1,50.3 160.7,50.5 159.5,50.5 C157.8,50.5 156.5,50.1 155.6,49.4 C154.7,48.7 154.1,47.7 153.9,46.4 L153.7,44 C152.4,46.2 150.6,47.9 148.4,49.1 C146.4,50.1 144,50.6 141.5,50.6 Z M143.9,42.9 C144.8,42.9 145.6,42.8 146.5,42.5 C147.4,42.2 148.2,41.8 149,41.3 C149.8,40.8 150.5,40.1 151.1,39.4 C151.7,38.7 152.2,37.9 152.5,37 L152.5,28.6 C151.7,26.6 150.5,25 148.8,23.7 C147.1,22.4 145.3,21.7 143.4,21.7 C142,21.7 140.8,22 139.7,22.6 C138.6,23.2 137.6,24 136.8,25 C136,26 135.4,27.2 134.9,28.5 C134.4,29.8 134.2,31.2 134.2,32.5 C134.2,34 134.4,35.4 134.9,36.6 C135.4,37.9 136.1,39 137,39.9 C137.9,40.8 138.9,41.6 140.1,42.1 C141.2,42.7 142.5,42.9 143.9,42.9 Z" id="XMLID_213_"></path>
                <path d="M187.2,50.6 C184.4,50.6 181.8,50.1 179.5,49.1 C177.2,48.1 175.2,46.8 173.6,45.2 C172,43.6 170.7,41.6 169.9,39.4 C169,37.2 168.6,34.9 168.6,32.4 C168.6,29.9 169,27.5 169.9,25.3 C170.8,23.1 172,21.1 173.6,19.4 C175.2,17.7 177.2,16.4 179.5,15.4 C181.8,14.4 184.4,13.9 187.3,13.9 C190.2,13.9 192.8,14.4 195,15.4 C197.3,16.4 199.2,17.7 200.8,19.4 C202.4,21.1 203.6,23 204.4,25.2 C205.2,27.4 205.6,29.7 205.6,32.1 C205.6,32.7 205.6,33.2 205.6,33.8 C205.6,34.4 205.5,34.8 205.4,35.2 L178.1,35.2 C178.2,36.6 178.6,37.8 179.1,38.9 C179.6,40 180.3,40.9 181.2,41.7 C182.1,42.5 183,43.1 184.1,43.5 C185.2,43.9 186.3,44.1 187.5,44.1 C189.3,44.1 191,43.7 192.6,42.8 C194.2,41.9 195.3,40.8 195.9,39.3 L203.7,41.5 C202.4,44.2 200.3,46.4 197.5,48.2 C194.5,49.8 191.1,50.6 187.2,50.6 Z M196.4,29.3 C196.2,26.6 195.2,24.5 193.5,22.9 C191.8,21.3 189.7,20.5 187.2,20.5 C186,20.5 184.8,20.7 183.8,21.1 C182.7,21.5 181.8,22.1 181,22.9 C180.2,23.7 179.5,24.6 179,25.7 C178.5,26.8 178.2,28 178.1,29.3 L196.4,29.3 Z" id="XMLID_221_"></path>
                <path d="M211.1,0.8 L220.1,0.8 L220.1,38.3 C220.1,41 221.3,42.4 223.8,42.4 C224.3,42.4 224.9,42.3 225.5,42.1 C226.1,41.9 226.8,41.7 227.4,41.5 L228.6,48.7 C227.4,49.3 226,49.7 224.3,50.1 C222.7,50.4 221.2,50.6 219.9,50.6 C217.1,50.6 214.9,49.8 213.3,48.3 C211.7,46.8 211,44.6 211,41.9 L211,0.8 L211.1,0.8 Z" id="XMLID_249_"></path>
                <path d="M242.3,50.6 C240.6,50.6 239,50.3 237.5,49.8 C236,49.2 234.7,48.4 233.7,47.4 C232.6,46.4 231.8,45.2 231.2,43.9 C230.6,42.5 230.3,41.1 230.3,39.4 C230.3,37.7 230.7,36.2 231.4,34.8 C232.1,33.4 233.2,32.2 234.5,31.2 C235.8,30.2 237.4,29.4 239.3,28.9 C241.1,28.3 243.2,28.1 245.4,28.1 C247,28.1 248.5,28.2 250,28.5 C251.5,28.8 252.8,29.2 254,29.6 L254,27.6 C254,25.3 253.3,23.5 252,22.2 C250.7,20.9 248.7,20.3 246.1,20.3 C244.2,20.3 242.4,20.6 240.6,21.3 C238.8,22 237,23 235.1,24.3 L232.3,18.6 C236.8,15.6 241.7,14.1 247,14.1 C252.1,14.1 256,15.4 258.8,17.8 C261.6,20.3 263,23.9 263,28.6 L263,39.6 C263,40.5 263.2,41.2 263.5,41.6 C263.9,42 264.5,42.2 265.4,42.3 L265.4,50 C264.5,50.2 263.7,50.3 263,50.4 C262.3,50.5 261.6,50.5 261.1,50.5 C259.4,50.5 258.1,50.1 257.2,49.3 C256.3,48.6 255.7,47.6 255.5,46.3 L255.3,44.3 C253.7,46.4 251.8,47.9 249.6,49 C247.3,50.1 244.9,50.6 242.3,50.6 Z M244.9,44 C246.4,44 247.9,43.7 249.3,43.2 C250.7,42.7 251.7,41.9 252.5,41 C253.5,40.2 254,39.4 254,38.4 L254,34.4 C252.9,34 251.8,33.7 250.5,33.4 C249.2,33.2 248,33 246.9,33 C244.6,33 242.6,33.5 241.2,34.6 C239.7,35.7 239,37 239,38.6 C239,40.1 239.6,41.4 240.8,42.4 C241.7,43.5 243.2,44 244.9,44 Z" id="XMLID_252_"></path>
            </g>
            <path d="M70.4,19.9 L38.4,1.4 C37.2,0.7 35.8,0.7 34.6,1.4 L2.6,19.9 C1.4,20.6 0.7,21.8 0.7,23.2 L0.7,60.2 C0.7,61.5 1.4,62.8 2.6,63.5 L34.6,82 C35.8,82.7 37.2,82.7 38.4,82 L70.4,63.5 C71.6,62.8 72.3,61.6 72.3,60.2 L72.3,23.2 C72.3,21.8 71.6,20.6 70.4,19.9 Z M34.5,67.3 C34.3,67.4 34,67.4 33.9,67.4 C33.1,67.4 32.3,66.9 32.2,66 C32.1,65.5 32.2,65 32.4,64.7 C32.6,64.3 33.1,64 33.5,63.9 C34.1,63.8 36.2,63.1 38.4,61.4 C40.6,59.7 43.4,56.5 43.9,51.3 C44.9,40.9 38.2,31.5 32,24.9 C31.6,27.7 29.8,31.4 25.2,35.5 L25.1,35.7 C22.6,37.8 20.2,40 18.5,42.5 C15.5,46.9 17.2,54.5 20.8,58.2 C23.6,61 27.5,62.5 30.2,63.4 C31.1,63.7 31.6,64.7 31.3,65.6 C30.9,66.6 29.9,67 29.1,66.8 C25.7,65.7 21.4,63.9 18.3,60.6 C13.7,55.8 11.5,46.7 15.6,40.5 C17.6,37.6 20.3,35.2 22.8,33.1 L22.9,32.9 C30.8,26 28.4,21.3 28.4,21.2 C28,20.4 28.1,19.5 28.8,19 C29.4,18.4 30.4,18.5 31.1,19.1 C39.3,26.6 48.8,38.4 47.5,51.7 C46.4,63.2 36.6,66.7 34.5,67.3 Z M46.2,66.9 L46.1,67 L45.7,66.9 C44.9,66.9 44.2,66.3 44,65.5 C43.8,64.7 44.2,63.7 45.2,63.5 C45.4,63.4 55.2,60.8 56.1,49.5 C57,38.1 50.3,27.5 44,20.3 C43.6,22.6 42.6,25 41.1,27.3 L40.5,28.1 L39.8,27.3 C39.6,27 39.4,26.7 39.1,26.5 C38.9,26.2 38.7,26 38.5,25.7 L38.2,25.3 L38.5,24.8 C41.3,20.2 40.4,17 40.1,16.1 C40,15.9 39.9,15.6 39.9,15.3 C39.9,14.8 40.2,14.3 40.6,13.9 C41.3,13.4 42.3,13.5 42.9,14.1 C51.1,22.3 60.6,35.2 59.3,49.7 C58.6,62.4 48.3,66.3 46.2,66.9 Z" id="XMLID_189_" fill="#0012D4"></path>
        </g>
    </g>
</svg>